<svg id="kasa" data-name="Calque 1" xmlns="http://www.w3.org/2000/svg" viewBox="0 0 1160.97 376.08"><defs><style>.cls-1{fill:#fff;}</style></defs><path class="cls-1" d="M111,191.52,48.86,255v89.1H0V0H48.86V192.54L234.14,0h56L144.56,154.65,300.31,344.12h-57Z"/><path class="cls-1" d="M506,275.77v70.6l29.85-17.65v-70.6Z"/><path class="cls-1" d="M587.43,190.75,466.32,120.1,399.15,81.19,333,196.89l1,108.54,120.09,70.65,12.21-7.17V266.52l53.94-95.22,55,31.74V305.43l12.21-7.17Z"/><path class="cls-1" d="M1161,187.12v157H1116.4V309.43c-15.2,23.44-44.58,36.69-85.1,36.69-58.76,0-95.23-31.59-95.23-76.44,0-41.79,26.34-75.42,103.33-75.42h74v-9.18c0-39.75-23.3-62.17-68.89-62.17-30.39,0-61.8,11.21-82.06,27.52l-19.25-35.67C969.5,93.35,1008,81.12,1049.53,81.12,1121.46,82.14,1161,116.79,1161,187.12Zm-46.6,77.46V227.89h-71.93c-46.6,0-59.77,18.35-59.77,39.75,0,25.48,21.27,41.79,56.73,41.79C1074.86,310.45,1103.23,295.16,1114.37,264.58Z"/><path class="cls-1" d="M654.75,316.21,674,279.45C696.38,294.77,730.89,306,764.39,306c43.65,0,60.91-13.28,60.91-35.74,0-58.22-163.44-8.18-163.44-111.33,0-47,41.62-77.62,107.61-77.62,33.5,0,72.07,9.19,94.41,23.49l-20.3,36.77c-23.35-15.32-48.73-20.43-74.11-20.43-40.61,0-60.91,15.32-60.91,35.75,0,61.28,163.44,11.23,163.44,112.34,0,47-42.64,76.6-111.67,76.6C718.71,346.85,676.07,333.58,654.75,316.21Z"/></svg>